# xmcd
#
# Track frame offsets:
#	150
#	14641
#	30393
#	45525
#	59838
#	75012
#	90912
#	109401
#	122081
#	142399
#	160136
#
# Disc length: 2268 seconds
#
# Revision: 0
# Processed by: cddbd v1.5.2PL0 Copyright (c) Steve Scherf et al.
# Submitted via: EasyCDDAExtractor 16.0.1.1
#
DISCID=8c08da0b
DTITLE=Harley Cummins - Cut Of The Shadows
DYEAR=2002
DGENRE=Country
TTITLE0=Heavy Construction
TTITLE1=Savin' Up My Pennies
TTITLE2=Don't Worry 'bout Me
TTITLE3=Deep in The Heart Of This Texan
TTITLE4=Master Of Illusion
TTITLE5=Three Days Out Of Texas
TTITLE6=I'm Only Goin' Crazy
TTITLE7=Between A Rock And A Hard Place
TTITLE8=Are You Goin' That Far
TTITLE9=My Woman  My Woman  My Wife
TTITLE10=All The Good Ones Weren't Taken
EXTD=
EXTT0=
EXTT1=
EXTT2=
EXTT3=
EXTT4=
EXTT5=
EXTT6=
EXTT7=
EXTT8=
EXTT9=
EXTT10=
PLAYORDER=
